<?xml version="1.0" encoding="UTF-8" standalone="no"?>
<svg
  xmlns="http://www.w3.org/2000/svg"
  xmlns:xlink="http://www.w3.org/1999/xlink" viewBox="0 0 38 32">
  <path fill="#6585ed" id="c"
d="M16.625 2.51649C17.0623 2.51649 17.4167 2.16202 17.4167 1.7248C17.4167 1.28757 17.0623 0.933105 16.625 0.933105C7.44766 0.94357 0.010501 8.38073 3.61531e-05 17.5581V22.3081C-0.0136943 27.1316 3.88531 31.0529 8.70871 31.0667C13.5322 31.0804 17.4535 27.1814 17.4673 22.358C17.481 17.5345 13.582 13.6132 8.75859 13.5994C5.91052 13.5913 3.23731 14.9724 1.59604 17.3C1.74262 9.10125 8.42483 2.52814 16.625 2.51649Z" />
  <path fill="#6585ed" id="c"
      d="M29.2903 13.5998C26.4586 13.602 23.8052 14.9825 22.178 17.3C22.3247 9.10118 29.0069 2.52807 37.207 2.51649C37.6442 2.51649 37.9987 2.16202 37.9987 1.7248C37.9987 1.28757 37.6442 0.933105 37.207 0.933105C28.0297 0.94357 20.5925 8.38074 20.582 17.5581V22.3081C20.582 27.1176 24.4809 31.0164 29.2903 31.0164C34.0998 31.0164 37.9986 27.1176 37.9986 22.3081C37.9986 17.4987 34.0999 13.5998 29.2903 13.5998Z" />
<use xlink:href="#c" transform="translate(230)" />
</svg>